<svg width="78" height="78" viewBox="0 0 78 78" fill="none" xmlns="http://www.w3.org/2000/svg">
<path d="M74.1002 0H3.90016C1.67813 0.0707019 -0.066939 1.92745 0.000163101 4.1496V73.8504C-0.066939 76.0725 1.67813 77.9293 3.90016 78H74.1002C76.3222 77.9293 78.0673 76.0725 78.0002 73.8504V4.1496C78.0673 1.92745 76.3222 0.0707019 74.1002 0ZM3.90016 2.6H74.1002C74.8788 2.68467 75.4521 3.36815 75.4002 4.1496V10.4H2.60016V4.1496C2.54819 3.36815 3.12157 2.68467 3.90016 2.6ZM74.1002 75.4H3.90016C3.12157 75.3153 2.54819 74.6319 2.60016 73.8504V13H75.4002V73.8504C75.4619 74.635 74.8836 75.3244 74.1002 75.4Z" fill="#454654"/>
</svg>
