<svg width="80" height="80" viewBox="0 0 80 80" fill="none" xmlns="http://www.w3.org/2000/svg">
<path d="M78.6667 8C79.403 8 80 7.403 80 6.66667V1.33333C80 0.597005 79.403 0 78.6667 0H1.33333C0.597005 0 0 0.597005 0 1.33333V6.66667C0 7.403 0.597005 8 1.33333 8H4V53.3333H1.33333C0.597005 53.3333 0 53.9303 0 54.6667V60C0 60.7363 0.597005 61.3333 1.33333 61.3333H34.4362L20.3216 77.8001C19.9831 78.1953 19.9056 78.7513 20.123 79.224C20.3405 79.6966 20.8132 79.9994 21.3333 80H26.6667C27.056 80 27.4251 79.8301 27.6784 79.5345L36 69.8307V78.6667C36 79.403 36.597 80 37.3333 80H42.6667C43.403 80 44 79.403 44 78.6667V69.8307L52.3216 79.5345C52.5749 79.8301 52.944 80 53.3333 80H58.6667C59.1869 79.9994 59.6595 79.6966 59.877 79.224C60.0944 78.7513 60.0169 78.1953 59.6784 77.8001L45.5638 61.3333H78.6667C79.403 61.3333 80 60.7363 80 60V54.6667C80 53.9303 79.403 53.3333 78.6667 53.3333H76V8H78.6667ZM2.66667 2.66667H77.3333V5.33333H2.66667V2.66667ZM26.0534 77.3333H24.2318L36 63.6003V65.7331L26.0534 77.3333ZM41.3333 77.3333H38.6667V61.3333H41.3333V77.3333ZM53.9466 77.3333L44 65.7331V63.6003L55.7682 77.3333H53.9466ZM77.3333 58.6667H2.66667V56H77.3333V58.6667ZM73.3333 53.3333H6.66667V8H73.3333V53.3333Z" fill="#EB3F57"/>
</svg>
